; Drill file
; Format: 2.4 (00.0000)
M48
INCH
T01C0.0315
T02C0.0362
T03C0.0394
T04C0.0787
T05C0.0827
T06C0.0906
%
G05
G90
T01
X001560Y015000
X001560Y016000
X001560Y017000
X001560Y018000
X001560Y019000
X001560Y020000
X001560Y021000
X001560Y022000
X002560Y022000
X002560Y021000
X002560Y020000
X002560Y019000
X002560Y018000
X002560Y017000
X002560Y016000
X002560Y015000
T02
X-000330Y017130
X-000330Y018110
X-000330Y018900
X-000330Y019880
X-000330Y027360
X-000330Y028350
X-000330Y029130
X-000330Y030120
T03
X-000650Y008560
X-000650Y009550
X000610Y009550
X000610Y008560
X001430Y035330
X002220Y035330
X002220Y036320
X001430Y036320
T04
X000000Y023620
X000360Y033460
X000360Y038200
X002950Y039370
X-002950Y039370
T05
X-000450Y006690
X-000450Y011430
T06
X-001900Y-001850
X-001900Y000000
X-001900Y001850
X000000Y001850
X000000Y000000
X000000Y-001850
X001900Y-001850
X001900Y000000
X001900Y001850
X-001390Y015920
X-001390Y021090
X-001390Y026160
X-001390Y031330
M30
