%FSLAX34Y34*%
%MOMM*%
%LNCOPPER_BOTTOM*%
G71*
G01*
%ADD10C, 0.10*%
%ADD11C, 0.70*%
%ADD12C, 0.14*%
%ADD13C, 0.00*%
%ADD14C, 0.12*%
%ADD15C, 1.70*%
%ADD16C, 1.50*%
%LPD*%
G54D10*
X21100Y545501D02*
X21100Y394501D01*
X-56100Y394501D01*
X-56100Y545501D01*
X21100Y545501D01*
X-15000Y470000D02*
G54D11*
D03*
G54D12*
X-29844Y468570D02*
X-29844Y461636D01*
G54D12*
X-26956Y465103D02*
X-32733Y465103D01*
G54D12*
X-34900Y458459D02*
X-23345Y458459D01*
X-23345Y454126D01*
X-24067Y452392D01*
X-25511Y451526D01*
X-32733Y451526D01*
X-34178Y452392D01*
X-34900Y454126D01*
X-34900Y458459D01*
G54D12*
X-29844Y488570D02*
X-29844Y481636D01*
G54D12*
X-34900Y478459D02*
X-23345Y478459D01*
X-23345Y474126D01*
X-24067Y472392D01*
X-25511Y471526D01*
X-32733Y471526D01*
X-34178Y472392D01*
X-34900Y474126D01*
X-34900Y478459D01*
G54D12*
X-29844Y513570D02*
X-29844Y506636D01*
G54D12*
X-26956Y510103D02*
X-32733Y510103D01*
G54D12*
X-23345Y496526D02*
X-23345Y503459D01*
X-28400Y503459D01*
X-28400Y502592D01*
X-27678Y500859D01*
X-27678Y499126D01*
X-28400Y497392D01*
X-29844Y496526D01*
X-32733Y496526D01*
X-34178Y497392D01*
X-34900Y499126D01*
X-34900Y500859D01*
X-34178Y502592D01*
X-32733Y503459D01*
G54D12*
X-25511Y431614D02*
X-32733Y431614D01*
X-34178Y432481D01*
X-34900Y434214D01*
X-34900Y435948D01*
X-34178Y437681D01*
X-32733Y438548D01*
X-25511Y438548D01*
X-24067Y437681D01*
X-23345Y435948D01*
X-23345Y434214D01*
X-24067Y432481D01*
X-25511Y431614D01*
G36*
X15000Y535082D02*
X15000Y405082D01*
X5000Y405082D01*
X5000Y535082D01*
X15000Y535082D01*
G37*
G54D13*
X15000Y535082D02*
X15000Y405082D01*
X5000Y405082D01*
X5000Y535082D01*
X15000Y535082D01*
G54D14*
X-52500Y506043D02*
X-43333Y506043D01*
X-42722Y505310D01*
X-43089Y504576D01*
G54D14*
X-47000Y507510D02*
X-47000Y504576D01*
G54D14*
X-47611Y501888D02*
X-47000Y500421D01*
X-47000Y498661D01*
X-48222Y497488D01*
X-52500Y497488D01*
G54D14*
X-50667Y497488D02*
X-49444Y498221D01*
X-49200Y499688D01*
X-49444Y501154D01*
X-50667Y501888D01*
X-51889Y501594D01*
X-52500Y500421D01*
X-52500Y499688D01*
X-52500Y499394D01*
X-51889Y498221D01*
X-50667Y497488D01*
G54D14*
X-47367Y491132D02*
X-47000Y492599D01*
X-47367Y494066D01*
X-48589Y494799D01*
X-51033Y494799D01*
X-52256Y494066D01*
X-52500Y492599D01*
X-52256Y491132D01*
G54D14*
X-51889Y484043D02*
X-52500Y485216D01*
X-52500Y486683D01*
X-51889Y488150D01*
X-50667Y488443D01*
X-48589Y488443D01*
X-47367Y487710D01*
X-47000Y486243D01*
X-47367Y484776D01*
X-48222Y484043D01*
X-49444Y484043D01*
X-49444Y488443D01*
G54D14*
X-47000Y481354D02*
X-54944Y481354D01*
G54D14*
X-50667Y481354D02*
X-52256Y480620D01*
X-52500Y479154D01*
X-52256Y477687D01*
X-51033Y476954D01*
X-48589Y476954D01*
X-47367Y477687D01*
X-47000Y479154D01*
X-47367Y480620D01*
X-48833Y481354D01*
G54D14*
X-52500Y474265D02*
X-42722Y474265D01*
G54D14*
X-47611Y471576D02*
X-47000Y470109D01*
X-47000Y468349D01*
X-48222Y467176D01*
X-52500Y467176D01*
G54D14*
X-50667Y467176D02*
X-49444Y467909D01*
X-49200Y469376D01*
X-49444Y470843D01*
X-50667Y471576D01*
X-51889Y471283D01*
X-52500Y470109D01*
X-52500Y469376D01*
X-52500Y469083D01*
X-51889Y467909D01*
X-50667Y467176D01*
G54D14*
X-42722Y463020D02*
X-51889Y463020D01*
X-52500Y462287D01*
X-52256Y461554D01*
G54D14*
X-47000Y464487D02*
X-47000Y461554D01*
G54D14*
X-51889Y454465D02*
X-52500Y455638D01*
X-52500Y457105D01*
X-51889Y458572D01*
X-50667Y458865D01*
X-48589Y458865D01*
X-47367Y458132D01*
X-47000Y456665D01*
X-47367Y455198D01*
X-48222Y454465D01*
X-49444Y454465D01*
X-49444Y458865D01*
G54D14*
X-47367Y445273D02*
X-47000Y446740D01*
X-47367Y448206D01*
X-48589Y448940D01*
X-51033Y448940D01*
X-52256Y448206D01*
X-52500Y446740D01*
X-52256Y445273D01*
G54D14*
X-47000Y438184D02*
X-52500Y438184D01*
G54D14*
X-51278Y438184D02*
X-52256Y438917D01*
X-52500Y440384D01*
X-52256Y441850D01*
X-51278Y442584D01*
X-47000Y442584D01*
G54D14*
X-42722Y434028D02*
X-51889Y434028D01*
X-52500Y433295D01*
X-52256Y432562D01*
G54D14*
X-47000Y435495D02*
X-47000Y432562D01*
G54D10*
X21100Y805501D02*
X21100Y654501D01*
X-56100Y654501D01*
X-56100Y805501D01*
X21100Y805501D01*
X-15000Y730000D02*
G54D11*
D03*
G54D12*
X-29844Y728570D02*
X-29844Y721636D01*
G54D12*
X-26956Y725103D02*
X-32733Y725103D01*
G54D12*
X-34900Y718459D02*
X-23345Y718459D01*
X-23345Y714126D01*
X-24067Y712392D01*
X-25511Y711526D01*
X-32733Y711526D01*
X-34178Y712392D01*
X-34900Y714126D01*
X-34900Y718459D01*
G54D12*
X-29844Y748570D02*
X-29844Y741636D01*
G54D12*
X-34900Y738459D02*
X-23345Y738459D01*
X-23345Y734126D01*
X-24067Y732392D01*
X-25511Y731526D01*
X-32733Y731526D01*
X-34178Y732392D01*
X-34900Y734126D01*
X-34900Y738459D01*
G54D12*
X-29844Y773570D02*
X-29844Y766636D01*
G54D12*
X-26956Y770103D02*
X-32733Y770103D01*
G54D12*
X-23345Y756526D02*
X-23345Y763459D01*
X-28400Y763459D01*
X-28400Y762592D01*
X-27678Y760859D01*
X-27678Y759126D01*
X-28400Y757392D01*
X-29844Y756526D01*
X-32733Y756526D01*
X-34178Y757392D01*
X-34900Y759126D01*
X-34900Y760859D01*
X-34178Y762592D01*
X-32733Y763459D01*
G54D12*
X-25511Y691614D02*
X-32733Y691614D01*
X-34178Y692481D01*
X-34900Y694214D01*
X-34900Y695948D01*
X-34178Y697681D01*
X-32733Y698548D01*
X-25511Y698548D01*
X-24067Y697681D01*
X-23345Y695948D01*
X-23345Y694214D01*
X-24067Y692481D01*
X-25511Y691614D01*
G36*
X15000Y795082D02*
X15000Y665082D01*
X5000Y665082D01*
X5000Y795082D01*
X15000Y795082D01*
G37*
G54D13*
X15000Y795082D02*
X15000Y665082D01*
X5000Y665082D01*
X5000Y795082D01*
X15000Y795082D01*
G54D14*
X-52500Y766043D02*
X-43333Y766043D01*
X-42722Y765310D01*
X-43089Y764576D01*
G54D14*
X-47000Y767510D02*
X-47000Y764576D01*
G54D14*
X-47611Y761888D02*
X-47000Y760421D01*
X-47000Y758661D01*
X-48222Y757488D01*
X-52500Y757488D01*
G54D14*
X-50667Y757488D02*
X-49444Y758221D01*
X-49200Y759688D01*
X-49444Y761154D01*
X-50667Y761888D01*
X-51889Y761594D01*
X-52500Y760421D01*
X-52500Y759688D01*
X-52500Y759394D01*
X-51889Y758221D01*
X-50667Y757488D01*
G54D14*
X-47367Y751132D02*
X-47000Y752599D01*
X-47367Y754066D01*
X-48589Y754799D01*
X-51033Y754799D01*
X-52256Y754066D01*
X-52500Y752599D01*
X-52256Y751132D01*
G54D14*
X-51889Y744043D02*
X-52500Y745216D01*
X-52500Y746683D01*
X-51889Y748150D01*
X-50667Y748443D01*
X-48589Y748443D01*
X-47367Y747710D01*
X-47000Y746243D01*
X-47367Y744776D01*
X-48222Y744043D01*
X-49444Y744043D01*
X-49444Y748443D01*
G54D14*
X-47000Y741354D02*
X-54944Y741354D01*
G54D14*
X-50667Y741354D02*
X-52256Y740620D01*
X-52500Y739154D01*
X-52256Y737687D01*
X-51033Y736954D01*
X-48589Y736954D01*
X-47367Y737687D01*
X-47000Y739154D01*
X-47367Y740620D01*
X-48833Y741354D01*
G54D14*
X-52500Y734265D02*
X-42722Y734265D01*
G54D14*
X-47611Y731576D02*
X-47000Y730109D01*
X-47000Y728349D01*
X-48222Y727176D01*
X-52500Y727176D01*
G54D14*
X-50667Y727176D02*
X-49444Y727909D01*
X-49200Y729376D01*
X-49444Y730843D01*
X-50667Y731576D01*
X-51889Y731283D01*
X-52500Y730109D01*
X-52500Y729376D01*
X-52500Y729083D01*
X-51889Y727909D01*
X-50667Y727176D01*
G54D14*
X-42722Y723020D02*
X-51889Y723020D01*
X-52500Y722287D01*
X-52256Y721554D01*
G54D14*
X-47000Y724487D02*
X-47000Y721554D01*
G54D14*
X-51889Y714465D02*
X-52500Y715638D01*
X-52500Y717105D01*
X-51889Y718572D01*
X-50667Y718865D01*
X-48589Y718865D01*
X-47367Y718132D01*
X-47000Y716665D01*
X-47367Y715198D01*
X-48222Y714465D01*
X-49444Y714465D01*
X-49444Y718865D01*
G54D14*
X-47367Y705273D02*
X-47000Y706740D01*
X-47367Y708207D01*
X-48589Y708940D01*
X-51033Y708940D01*
X-52256Y708207D01*
X-52500Y706740D01*
X-52256Y705273D01*
G54D14*
X-47000Y698184D02*
X-52500Y698184D01*
G54D14*
X-51278Y698184D02*
X-52256Y698917D01*
X-52500Y700384D01*
X-52256Y701851D01*
X-51278Y702584D01*
X-47000Y702584D01*
G54D14*
X-42722Y694028D02*
X-51889Y694028D01*
X-52500Y693295D01*
X-52256Y692562D01*
G54D14*
X-47000Y695495D02*
X-47000Y692562D01*
G54D10*
X63550Y970293D02*
X63550Y849893D01*
X-93550Y849893D01*
X-93550Y970293D01*
X63550Y970293D01*
G54D12*
X56506Y883893D02*
X56506Y876960D01*
G54D12*
X59394Y880426D02*
X53617Y880426D01*
G54D12*
X63006Y866849D02*
X63006Y873782D01*
X57950Y873782D01*
X57950Y872915D01*
X58672Y871182D01*
X58672Y869449D01*
X57950Y867715D01*
X56506Y866849D01*
X53617Y866849D01*
X52172Y867715D01*
X51450Y869449D01*
X51450Y871182D01*
X52172Y872915D01*
X53617Y873782D01*
G54D12*
X39839Y876960D02*
X32617Y876960D01*
X31172Y877826D01*
X30450Y879560D01*
X30450Y881293D01*
X31172Y883026D01*
X32617Y883893D01*
X39839Y883893D01*
X41283Y883026D01*
X42006Y881293D01*
X42006Y879560D01*
X41283Y877826D01*
X39839Y876960D01*
G54D12*
X56506Y952893D02*
X56506Y945960D01*
G54D12*
X51450Y942782D02*
X63006Y942782D01*
X63006Y938449D01*
X62283Y936715D01*
X60839Y935849D01*
X53617Y935849D01*
X52172Y936715D01*
X51450Y938449D01*
X51450Y942782D01*
G54D12*
X35506Y952893D02*
X35506Y945960D01*
G54D12*
X38394Y949426D02*
X32617Y949426D01*
G54D12*
X30450Y942782D02*
X42006Y942782D01*
X42006Y938449D01*
X41283Y936715D01*
X39839Y935849D01*
X32617Y935849D01*
X31172Y936715D01*
X30450Y938449D01*
X30450Y942782D01*
X-15000Y910000D02*
G54D15*
D03*
G54D12*
X17328Y203893D02*
X17328Y196960D01*
G54D12*
X20216Y200426D02*
X14439Y200426D01*
G54D12*
X23828Y186849D02*
X23828Y193782D01*
X18772Y193782D01*
X18772Y192915D01*
X19494Y191182D01*
X19494Y189449D01*
X18772Y187715D01*
X17328Y186849D01*
X14439Y186849D01*
X12994Y187715D01*
X12272Y189449D01*
X12272Y191182D01*
X12994Y192915D01*
X14439Y193782D01*
G54D12*
X-30439Y196960D02*
X-37661Y196960D01*
X-39106Y197826D01*
X-39828Y199560D01*
X-39828Y201293D01*
X-39106Y203026D01*
X-37661Y203893D01*
X-30439Y203893D01*
X-28995Y203026D01*
X-28272Y201293D01*
X-28272Y199560D01*
X-28995Y197826D01*
X-30439Y196960D01*
G54D12*
X17328Y272893D02*
X17328Y265960D01*
G54D12*
X12272Y262782D02*
X23828Y262782D01*
X23828Y258449D01*
X23105Y256715D01*
X21661Y255849D01*
X14439Y255849D01*
X12994Y256715D01*
X12272Y258449D01*
X12272Y262782D01*
G54D12*
X-34772Y272893D02*
X-34772Y265960D01*
G54D12*
X-31884Y269426D02*
X-37661Y269426D01*
G54D12*
X-39828Y262782D02*
X-28272Y262782D01*
X-28272Y258449D01*
X-28995Y256715D01*
X-30439Y255849D01*
X-37661Y255849D01*
X-39106Y256715D01*
X-39828Y258449D01*
X-39828Y262782D01*
X0Y230000D02*
G54D16*
D03*
G54D10*
X55000Y292500D02*
X55000Y167500D01*
X-65000Y167500D01*
X-65000Y292500D01*
X55000Y292500D01*
G54D14*
X-60000Y275826D02*
X-50833Y275826D01*
X-50222Y275093D01*
X-50589Y274360D01*
G54D14*
X-54500Y277293D02*
X-54500Y274360D01*
G54D14*
X-55111Y271671D02*
X-54500Y270204D01*
X-54500Y268444D01*
X-55722Y267271D01*
X-60000Y267271D01*
G54D14*
X-58167Y267271D02*
X-56944Y268004D01*
X-56700Y269471D01*
X-56944Y270938D01*
X-58167Y271671D01*
X-59389Y271378D01*
X-60000Y270204D01*
X-60000Y269471D01*
X-60000Y269178D01*
X-59389Y268004D01*
X-58167Y267271D01*
G54D14*
X-54867Y260915D02*
X-54500Y262382D01*
X-54867Y263849D01*
X-56089Y264582D01*
X-58533Y264582D01*
X-59756Y263849D01*
X-60000Y262382D01*
X-59756Y260915D01*
G54D14*
X-59389Y253826D02*
X-60000Y254999D01*
X-60000Y256466D01*
X-59389Y257933D01*
X-58167Y258226D01*
X-56089Y258226D01*
X-54867Y257493D01*
X-54500Y256026D01*
X-54867Y254559D01*
X-55722Y253826D01*
X-56944Y253826D01*
X-56944Y258226D01*
G54D14*
X-54500Y251137D02*
X-62444Y251137D01*
G54D14*
X-58167Y251137D02*
X-59756Y250404D01*
X-60000Y248937D01*
X-59756Y247470D01*
X-58533Y246737D01*
X-56089Y246737D01*
X-54867Y247470D01*
X-54500Y248937D01*
X-54867Y250404D01*
X-56333Y251137D01*
G54D14*
X-60000Y244048D02*
X-50222Y244048D01*
G54D14*
X-55111Y241359D02*
X-54500Y239892D01*
X-54500Y238132D01*
X-55722Y236959D01*
X-60000Y236959D01*
G54D14*
X-58167Y236959D02*
X-56944Y237692D01*
X-56700Y239159D01*
X-56944Y240626D01*
X-58167Y241359D01*
X-59389Y241066D01*
X-60000Y239892D01*
X-60000Y239159D01*
X-60000Y238866D01*
X-59389Y237692D01*
X-58167Y236959D01*
G54D14*
X-50222Y232803D02*
X-59389Y232803D01*
X-60000Y232070D01*
X-59756Y231337D01*
G54D14*
X-54500Y234270D02*
X-54500Y231337D01*
G54D14*
X-59389Y224248D02*
X-60000Y225421D01*
X-60000Y226888D01*
X-59389Y228355D01*
X-58167Y228648D01*
X-56089Y228648D01*
X-54867Y227915D01*
X-54500Y226448D01*
X-54867Y224981D01*
X-55722Y224248D01*
X-56944Y224248D01*
X-56944Y228648D01*
G54D14*
X-54867Y215056D02*
X-54500Y216523D01*
X-54867Y217990D01*
X-56089Y218723D01*
X-58533Y218723D01*
X-59756Y217990D01*
X-60000Y216523D01*
X-59756Y215056D01*
G54D14*
X-54500Y207967D02*
X-60000Y207967D01*
G54D14*
X-58778Y207967D02*
X-59756Y208700D01*
X-60000Y210167D01*
X-59756Y211634D01*
X-58778Y212367D01*
X-54500Y212367D01*
G54D14*
X-50222Y203811D02*
X-59389Y203811D01*
X-60000Y203078D01*
X-59756Y202345D01*
G54D14*
X-54500Y205278D02*
X-54500Y202345D01*
G54D14*
X-60000Y199656D02*
X-50222Y199656D01*
G54D14*
X-60000Y196967D02*
X-54500Y196967D01*
G54D14*
X-52667Y196967D02*
X-52667Y196967D01*
G54D14*
X-60000Y194278D02*
X-54500Y194278D01*
G54D14*
X-55722Y194278D02*
X-54867Y193545D01*
X-54500Y192078D01*
X-54867Y190611D01*
X-55722Y189878D01*
X-60000Y189878D01*
G54D14*
X-59389Y182789D02*
X-60000Y183962D01*
X-60000Y185429D01*
X-59389Y186896D01*
X-58167Y187189D01*
X-56089Y187189D01*
X-54867Y186456D01*
X-54500Y184989D01*
X-54867Y183522D01*
X-55722Y182789D01*
X-56944Y182789D01*
X-56944Y187189D01*
G54D10*
X82550Y-63500D02*
X-82550Y-63500D01*
X-82550Y63500D01*
X82550Y63500D01*
X82550Y-63500D01*
G36*
X-73200Y-45499D02*
X-78200Y-50499D01*
X-68200Y-50499D01*
X-73200Y-45499D01*
G37*
G54D13*
X-73200Y-45499D02*
X-78200Y-50499D01*
X-68200Y-50499D01*
X-73200Y-45499D01*
G36*
X-73200Y44499D02*
X-68200Y49499D01*
X-78200Y49499D01*
X-73200Y44499D01*
G37*
G54D13*
X-73200Y44499D02*
X-68200Y49499D01*
X-78200Y49499D01*
X-73200Y44499D01*
M02*
