%FSLAX34Y34*%
%MOMM*%
%LNCOPPER_TOP*%
G71*
G01*
%ADD10C, 4.00*%
%ADD11C, 2.80*%
%ADD12C, 1.40*%
%ADD13C, 0.80*%
%ADD14C, 0.60*%
%ADD15C, 0.00*%
%ADD16C, 2.50*%
%ADD17C, 4.80*%
%ADD18C, 2.30*%
%ADD19C, 4.80*%
%ADD20C, 2.50*%
%ADD21C, 4.80*%
%ADD22C, 4.10*%
%ADD23C, 2.00*%
%ADD24C, 4.00*%
%ADD25C, 1.50*%
%ADD26C, 1.70*%
%ADD27C, 4.00*%
%ADD28C, 3.30*%
%LPD*%
G36*
X-295000Y1220000D02*
X295000Y1220000D01*
X295000Y-280000D01*
X-295000Y-280000D01*
X-295000Y1220000D01*
G37*
%LPC*%
X-75000Y1000000D02*
G54D10*
D03*
X75000Y1000000D02*
G54D10*
D03*
X65100Y558900D02*
G54D11*
D03*
X39700Y558900D02*
G54D11*
D03*
X65100Y533500D02*
G54D11*
D03*
X39700Y533500D02*
G54D11*
D03*
X65100Y508100D02*
G54D11*
D03*
X39700Y508100D02*
G54D11*
D03*
X65100Y482700D02*
G54D11*
D03*
X39700Y482700D02*
G54D11*
D03*
X65100Y457300D02*
G54D11*
D03*
X39700Y457300D02*
G54D11*
D03*
X65100Y431900D02*
G54D11*
D03*
X39700Y431900D02*
G54D11*
D03*
X65100Y406500D02*
G54D11*
D03*
X39700Y406500D02*
G54D11*
D03*
X65100Y381100D02*
G54D11*
D03*
X39700Y381100D02*
G54D11*
D03*
X0Y600000D02*
G54D10*
D03*
G54D12*
X56350Y897500D02*
X56350Y606350D01*
X20000Y570000D01*
X20000Y365000D01*
X80000Y305000D01*
X80000Y31700D01*
X48300Y0D01*
G54D13*
X65100Y508100D02*
X21900Y508100D01*
G36*
X65100Y504100D02*
X65100Y512100D01*
X69100Y512100D01*
X69100Y504100D01*
X65100Y504100D01*
G37*
G36*
X21900Y512100D02*
X21900Y504100D01*
X17900Y504100D01*
X17900Y512100D01*
X21900Y512100D01*
G37*
G54D14*
X0Y0D02*
X24150Y24150D01*
X24150Y134150D01*
X40000Y150000D01*
X40000Y218050D01*
X15550Y242500D01*
G54D14*
X-16550Y242500D02*
X-50000Y209050D01*
X-50000Y98300D01*
X-24150Y72450D01*
X-24150Y24150D01*
X-48300Y0D01*
G54D12*
X-8300Y460000D02*
X-45000Y460000D01*
X-62500Y442500D01*
X-62500Y61200D01*
X-48300Y47000D01*
G54D12*
X0Y47000D02*
X0Y130000D01*
X25000Y155000D01*
X25000Y180000D01*
X0Y205000D01*
X0Y255000D01*
X25000Y280000D01*
X25000Y340000D01*
X7500Y357500D01*
X7500Y472500D01*
X0Y480000D01*
X-8300Y480000D01*
G54D12*
X-8300Y720000D02*
X-20000Y720000D01*
X-75000Y665000D01*
X-75000Y-20300D01*
X-48300Y-47000D01*
G54D12*
X-8300Y740000D02*
X-20000Y740000D01*
X-87500Y672500D01*
X-87500Y-44500D01*
X-59500Y-72500D01*
X-25500Y-72500D01*
X0Y-47000D01*
G36*
X95000Y-80000D02*
X-95000Y-80000D01*
X-95000Y740000D01*
X95000Y740000D01*
X95000Y-80000D01*
G37*
G54D15*
X95000Y-80000D02*
X-95000Y-80000D01*
X-95000Y740000D01*
X95000Y740000D01*
X95000Y-80000D01*
G36*
X56350Y897500D02*
X36350Y897500D01*
X36350Y922500D01*
X56350Y922500D01*
X56350Y897500D01*
G37*
G54D16*
X56350Y897500D02*
X36350Y897500D01*
X36350Y922500D01*
X56350Y922500D01*
X56350Y897500D01*
X-35400Y535782D02*
G54D17*
D03*
X-35400Y404382D02*
G54D17*
D03*
X-8300Y505000D02*
G54D18*
D03*
X-8300Y480000D02*
G54D18*
D03*
X-8300Y460000D02*
G54D18*
D03*
X-8300Y435000D02*
G54D18*
D03*
X-35400Y795782D02*
G54D17*
D03*
X-35400Y664382D02*
G54D17*
D03*
X-8300Y765000D02*
G54D18*
D03*
X-8300Y740000D02*
G54D18*
D03*
X-8300Y720000D02*
G54D18*
D03*
X-8300Y695000D02*
G54D18*
D03*
X9250Y970293D02*
G54D19*
D03*
X9250Y849893D02*
G54D19*
D03*
X36350Y922500D02*
G54D20*
D03*
X36350Y897500D02*
G54D20*
D03*
X56350Y922500D02*
G54D20*
D03*
X56350Y897500D02*
G54D20*
D03*
X-11500Y290293D02*
G54D21*
D03*
X-11500Y169893D02*
G54D21*
D03*
X-16550Y242500D02*
G54D20*
D03*
X-16550Y217500D02*
G54D20*
D03*
X15550Y242500D02*
G54D20*
D03*
X15550Y217500D02*
G54D20*
D03*
G36*
X15550Y242500D02*
X15550Y217500D01*
X15550Y217500D01*
X15550Y242500D01*
X15550Y242500D01*
G37*
G54D16*
X15550Y242500D02*
X15550Y217500D01*
X15550Y217500D01*
X15550Y242500D01*
X15550Y242500D01*
G36*
X-16550Y242500D02*
X-16550Y217500D01*
X-16550Y217500D01*
X-16550Y242500D01*
X-16550Y242500D01*
G37*
G54D16*
X-16550Y242500D02*
X-16550Y217500D01*
X-16550Y217500D01*
X-16550Y242500D01*
X-16550Y242500D01*
X48300Y-47000D02*
G54D22*
D03*
X0Y-47000D02*
G54D22*
D03*
X48300Y0D02*
G54D22*
D03*
X0Y0D02*
G54D22*
D03*
X48300Y47000D02*
G54D22*
D03*
X0Y47000D02*
G54D22*
D03*
X-48300Y-47000D02*
G54D22*
D03*
X-48300Y0D02*
G54D22*
D03*
X-48300Y47000D02*
G54D22*
D03*
%LPD*%
X-75000Y1000000D02*
G54D10*
D03*
X75000Y1000000D02*
G54D10*
D03*
X65100Y558900D02*
G54D23*
D03*
X39700Y558900D02*
G54D23*
D03*
X65100Y533500D02*
G54D23*
D03*
X39700Y533500D02*
G54D23*
D03*
X65100Y508100D02*
G54D23*
D03*
X39700Y508100D02*
G54D23*
D03*
X65100Y482700D02*
G54D23*
D03*
X39700Y482700D02*
G54D23*
D03*
X65100Y457300D02*
G54D23*
D03*
X39700Y457300D02*
G54D23*
D03*
X65100Y431900D02*
G54D23*
D03*
X39700Y431900D02*
G54D23*
D03*
X65100Y406500D02*
G54D23*
D03*
X39700Y406500D02*
G54D23*
D03*
X65100Y381100D02*
G54D23*
D03*
X39700Y381100D02*
G54D23*
D03*
X0Y600000D02*
G54D10*
D03*
G54D14*
X56350Y897500D02*
X56350Y606350D01*
X20000Y570000D01*
X20000Y365000D01*
X80000Y305000D01*
X80000Y31700D01*
X48300Y0D01*
G54D13*
X65100Y508100D02*
X21900Y508100D01*
G36*
X65100Y504100D02*
X65100Y512100D01*
X69100Y512100D01*
X69100Y504100D01*
X65100Y504100D01*
G37*
G36*
X21900Y512100D02*
X21900Y504100D01*
X17900Y504100D01*
X17900Y512100D01*
X21900Y512100D01*
G37*
G54D14*
X0Y0D02*
X24150Y24150D01*
X24150Y134150D01*
X40000Y150000D01*
X40000Y218050D01*
X15550Y242500D01*
G54D14*
X-16550Y242500D02*
X-50000Y209050D01*
X-50000Y98300D01*
X-24150Y72450D01*
X-24150Y24150D01*
X-48300Y0D01*
G54D14*
X-8300Y460000D02*
X-45000Y460000D01*
X-62500Y442500D01*
X-62500Y61200D01*
X-48300Y47000D01*
G54D14*
X0Y47000D02*
X0Y130000D01*
X25000Y155000D01*
X25000Y180000D01*
X0Y205000D01*
X0Y255000D01*
X25000Y280000D01*
X25000Y340000D01*
X7500Y357500D01*
X7500Y472500D01*
X0Y480000D01*
X-8300Y480000D01*
G54D14*
X-8300Y720000D02*
X-20000Y720000D01*
X-75000Y665000D01*
X-75000Y-20300D01*
X-48300Y-47000D01*
G54D14*
X-8300Y740000D02*
X-20000Y740000D01*
X-87500Y672500D01*
X-87500Y-44500D01*
X-59500Y-72500D01*
X-25500Y-72500D01*
X0Y-47000D01*
X-35400Y535782D02*
G54D24*
D03*
X-35400Y404382D02*
G54D24*
D03*
X-8300Y505000D02*
G54D25*
D03*
X-8300Y480000D02*
G54D25*
D03*
X-8300Y460000D02*
G54D25*
D03*
X-8300Y435000D02*
G54D25*
D03*
X-35400Y795782D02*
G54D24*
D03*
X-35400Y664382D02*
G54D24*
D03*
X-8300Y765000D02*
G54D25*
D03*
X-8300Y740000D02*
G54D25*
D03*
X-8300Y720000D02*
G54D25*
D03*
X-8300Y695000D02*
G54D25*
D03*
X9250Y970293D02*
G54D10*
D03*
X9250Y849893D02*
G54D10*
D03*
X36350Y922500D02*
G54D26*
D03*
X36350Y897500D02*
G54D26*
D03*
X56350Y922500D02*
G54D26*
D03*
X56350Y897500D02*
G54D26*
D03*
X-11500Y290293D02*
G54D27*
D03*
X-11500Y169893D02*
G54D27*
D03*
X-16550Y242500D02*
G54D26*
D03*
X-16550Y217500D02*
G54D26*
D03*
X15550Y242500D02*
G54D26*
D03*
X15550Y217500D02*
G54D26*
D03*
X48300Y-47000D02*
G54D28*
D03*
X0Y-47000D02*
G54D28*
D03*
X48300Y0D02*
G54D28*
D03*
X0Y0D02*
G54D28*
D03*
X48300Y47000D02*
G54D28*
D03*
X0Y47000D02*
G54D28*
D03*
X-48300Y-47000D02*
G54D28*
D03*
X-48300Y0D02*
G54D28*
D03*
X-48300Y47000D02*
G54D28*
D03*
M02*
