%FSLAX34Y34*%
%MOMM*%
%LNSILK_TOP*%
G71*
G01*
%ADD10C, 4.00*%
%ADD11C, 2.80*%
%ADD12C, 1.00*%
%ADD13C, 1.40*%
%ADD14C, 2.50*%
%ADD15C, 0.00*%
%ADD16C, 4.80*%
%ADD17C, 2.30*%
%ADD18C, 4.80*%
%ADD19C, 2.50*%
%ADD20C, 4.80*%
%ADD21C, 4.10*%
%ADD22C, 2.00*%
%ADD23C, 0.60*%
%ADD24C, 4.00*%
%ADD25C, 1.50*%
%ADD26C, 1.70*%
%ADD27C, 4.00*%
%ADD28C, 3.30*%
%LPD*%
G36*
X-295000Y1220000D02*
X295000Y1220000D01*
X295000Y-280000D01*
X-295000Y-280000D01*
X-295000Y1220000D01*
G37*
%LPC*%
X-75000Y1000000D02*
G54D10*
D03*
X75000Y1000000D02*
G54D10*
D03*
X65100Y558900D02*
G54D11*
D03*
X39700Y558900D02*
G54D11*
D03*
X65100Y533500D02*
G54D11*
D03*
X39700Y533500D02*
G54D11*
D03*
X65100Y508100D02*
G54D11*
D03*
X39700Y508100D02*
G54D11*
D03*
X65100Y482700D02*
G54D11*
D03*
X39700Y482700D02*
G54D11*
D03*
X65100Y457300D02*
G54D11*
D03*
X39700Y457300D02*
G54D11*
D03*
X65100Y431900D02*
G54D11*
D03*
X39700Y431900D02*
G54D11*
D03*
X65100Y406500D02*
G54D11*
D03*
X39700Y406500D02*
G54D11*
D03*
X65100Y381100D02*
G54D11*
D03*
X39700Y381100D02*
G54D11*
D03*
X0Y600000D02*
G54D10*
D03*
G54D12*
X36350Y897500D02*
X27500Y897500D01*
G36*
X36350Y892500D02*
X36350Y902500D01*
X41350Y902500D01*
X41350Y892500D01*
X36350Y892500D01*
G37*
G36*
X27500Y902500D02*
X27500Y892500D01*
X22500Y892500D01*
X22500Y902500D01*
X27500Y902500D01*
G37*
G54D12*
X550Y695000D02*
X-8300Y695000D01*
G36*
X550Y690000D02*
X550Y700000D01*
X5550Y700000D01*
X5550Y690000D01*
X550Y690000D01*
G37*
G36*
X-8300Y700000D02*
X-8300Y690000D01*
X-13300Y690000D01*
X-13300Y700000D01*
X-8300Y700000D01*
G37*
G54D12*
X550Y435000D02*
X-8300Y435000D01*
G36*
X550Y430000D02*
X550Y440000D01*
X5550Y440000D01*
X5550Y430000D01*
X550Y430000D01*
G37*
G36*
X-8300Y440000D02*
X-8300Y430000D01*
X-13300Y430000D01*
X-13300Y440000D01*
X-8300Y440000D01*
G37*
G54D12*
X76450Y406500D02*
X65100Y406500D01*
G36*
X76450Y401500D02*
X76450Y411500D01*
X81450Y411500D01*
X81450Y401500D01*
X76450Y401500D01*
G37*
G36*
X65100Y411500D02*
X65100Y401500D01*
X60100Y401500D01*
X60100Y411500D01*
X65100Y411500D01*
G37*
G54D12*
X39700Y406500D02*
X28350Y406500D01*
G36*
X39700Y401500D02*
X39700Y411500D01*
X44700Y411500D01*
X44700Y401500D01*
X39700Y401500D01*
G37*
G36*
X28350Y411500D02*
X28350Y401500D01*
X23350Y401500D01*
X23350Y411500D01*
X28350Y411500D01*
G37*
G54D13*
X-8300Y505000D02*
X5000Y505000D01*
X14500Y495500D01*
X14500Y350500D01*
X48300Y316700D01*
X48300Y47000D01*
G54D13*
X48300Y-47000D02*
X22800Y-72500D01*
X-57500Y-72500D01*
X-81250Y-48750D01*
X-81250Y698750D01*
X-15000Y765000D01*
X-8300Y765000D01*
G36*
X56350Y897500D02*
X36350Y897500D01*
X36350Y922500D01*
X56350Y922500D01*
X56350Y897500D01*
G37*
G54D14*
X56350Y897500D02*
X36350Y897500D01*
X36350Y922500D01*
X56350Y922500D01*
X56350Y897500D01*
G36*
X27800Y-72500D02*
X27800Y-80000D01*
X-62500Y-80000D01*
X-62500Y-72500D01*
X27800Y-72500D01*
G37*
G54D15*
X27800Y-72500D02*
X27800Y-80000D01*
X-62500Y-80000D01*
X-62500Y-72500D01*
X27800Y-72500D01*
G36*
X44700Y558900D02*
X70100Y558900D01*
X70100Y381100D01*
X44700Y381100D01*
X44700Y558900D01*
G37*
G54D15*
X44700Y558900D02*
X70100Y558900D01*
X70100Y381100D01*
X44700Y381100D01*
X44700Y558900D01*
X-35400Y535782D02*
G54D16*
D03*
X-35400Y404382D02*
G54D16*
D03*
X-8300Y505000D02*
G54D17*
D03*
X-8300Y480000D02*
G54D17*
D03*
X-8300Y460000D02*
G54D17*
D03*
X-8300Y435000D02*
G54D17*
D03*
X-35400Y795782D02*
G54D16*
D03*
X-35400Y664382D02*
G54D16*
D03*
X-8300Y765000D02*
G54D17*
D03*
X-8300Y740000D02*
G54D17*
D03*
X-8300Y720000D02*
G54D17*
D03*
X-8300Y695000D02*
G54D17*
D03*
G36*
X36350Y922500D02*
X56350Y922500D01*
X56350Y897500D01*
X36350Y897500D01*
X36350Y922500D01*
G37*
G54D14*
X36350Y922500D02*
X56350Y922500D01*
X56350Y897500D01*
X36350Y897500D01*
X36350Y922500D01*
X9250Y970293D02*
G54D18*
D03*
X9250Y849893D02*
G54D18*
D03*
X36350Y922500D02*
G54D19*
D03*
X36350Y897500D02*
G54D19*
D03*
X56350Y922500D02*
G54D19*
D03*
X56350Y897500D02*
G54D19*
D03*
X-11500Y290293D02*
G54D20*
D03*
X-11500Y169893D02*
G54D20*
D03*
X-16550Y242500D02*
G54D19*
D03*
X-16550Y217500D02*
G54D19*
D03*
X15550Y242500D02*
G54D19*
D03*
X15550Y217500D02*
G54D19*
D03*
G36*
X15550Y242500D02*
X15550Y217500D01*
X15550Y217500D01*
X15550Y242500D01*
X15550Y242500D01*
G37*
G54D14*
X15550Y242500D02*
X15550Y217500D01*
X15550Y217500D01*
X15550Y242500D01*
X15550Y242500D01*
G36*
X-16550Y242500D02*
X-16550Y217500D01*
X-16550Y217500D01*
X-16550Y242500D01*
X-16550Y242500D01*
G37*
G54D14*
X-16550Y242500D02*
X-16550Y217500D01*
X-16550Y217500D01*
X-16550Y242500D01*
X-16550Y242500D01*
X48300Y-47000D02*
G54D21*
D03*
X0Y-47000D02*
G54D21*
D03*
X48300Y0D02*
G54D21*
D03*
X0Y0D02*
G54D21*
D03*
X48300Y47000D02*
G54D21*
D03*
X0Y47000D02*
G54D21*
D03*
X-48300Y-47000D02*
G54D21*
D03*
X-48300Y0D02*
G54D21*
D03*
X-48300Y47000D02*
G54D21*
D03*
G54D12*
X-16550Y217500D02*
X-25400Y217500D01*
G36*
X-16550Y212500D02*
X-16550Y222500D01*
X-11550Y222500D01*
X-11550Y212500D01*
X-16550Y212500D01*
G37*
G36*
X-25400Y222500D02*
X-25400Y212500D01*
X-30400Y212500D01*
X-30400Y222500D01*
X-25400Y222500D01*
G37*
%LPD*%
X-75000Y1000000D02*
G54D10*
D03*
X75000Y1000000D02*
G54D10*
D03*
X65100Y558900D02*
G54D22*
D03*
X39700Y558900D02*
G54D22*
D03*
X65100Y533500D02*
G54D22*
D03*
X39700Y533500D02*
G54D22*
D03*
X65100Y508100D02*
G54D22*
D03*
X39700Y508100D02*
G54D22*
D03*
X65100Y482700D02*
G54D22*
D03*
X39700Y482700D02*
G54D22*
D03*
X65100Y457300D02*
G54D22*
D03*
X39700Y457300D02*
G54D22*
D03*
X65100Y431900D02*
G54D22*
D03*
X39700Y431900D02*
G54D22*
D03*
X65100Y406500D02*
G54D22*
D03*
X39700Y406500D02*
G54D22*
D03*
X65100Y381100D02*
G54D22*
D03*
X39700Y381100D02*
G54D22*
D03*
X0Y600000D02*
G54D10*
D03*
G54D12*
X36350Y897500D02*
X27500Y897500D01*
G36*
X36350Y892500D02*
X36350Y902500D01*
X41350Y902500D01*
X41350Y892500D01*
X36350Y892500D01*
G37*
G36*
X27500Y902500D02*
X27500Y892500D01*
X22500Y892500D01*
X22500Y902500D01*
X27500Y902500D01*
G37*
G54D12*
X550Y695000D02*
X-8300Y695000D01*
G36*
X550Y690000D02*
X550Y700000D01*
X5550Y700000D01*
X5550Y690000D01*
X550Y690000D01*
G37*
G36*
X-8300Y700000D02*
X-8300Y690000D01*
X-13300Y690000D01*
X-13300Y700000D01*
X-8300Y700000D01*
G37*
G54D12*
X550Y435000D02*
X-8300Y435000D01*
G36*
X550Y430000D02*
X550Y440000D01*
X5550Y440000D01*
X5550Y430000D01*
X550Y430000D01*
G37*
G36*
X-8300Y440000D02*
X-8300Y430000D01*
X-13300Y430000D01*
X-13300Y440000D01*
X-8300Y440000D01*
G37*
G54D12*
X76450Y406500D02*
X65100Y406500D01*
G36*
X76450Y401500D02*
X76450Y411500D01*
X81450Y411500D01*
X81450Y401500D01*
X76450Y401500D01*
G37*
G36*
X65100Y411500D02*
X65100Y401500D01*
X60100Y401500D01*
X60100Y411500D01*
X65100Y411500D01*
G37*
G54D12*
X39700Y406500D02*
X28350Y406500D01*
G36*
X39700Y401500D02*
X39700Y411500D01*
X44700Y411500D01*
X44700Y401500D01*
X39700Y401500D01*
G37*
G36*
X28350Y411500D02*
X28350Y401500D01*
X23350Y401500D01*
X23350Y411500D01*
X28350Y411500D01*
G37*
G54D23*
X-8300Y505000D02*
X5000Y505000D01*
X14500Y495500D01*
X14500Y350500D01*
X48300Y316700D01*
X48300Y47000D01*
G54D23*
X48300Y-47000D02*
X22800Y-72500D01*
X-57500Y-72500D01*
X-81250Y-48750D01*
X-81250Y698750D01*
X-15000Y765000D01*
X-8300Y765000D01*
X-35400Y535782D02*
G54D24*
D03*
X-35400Y404382D02*
G54D24*
D03*
X-8300Y505000D02*
G54D25*
D03*
X-8300Y480000D02*
G54D25*
D03*
X-8300Y460000D02*
G54D25*
D03*
X-8300Y435000D02*
G54D25*
D03*
X-35400Y795782D02*
G54D24*
D03*
X-35400Y664382D02*
G54D24*
D03*
X-8300Y765000D02*
G54D25*
D03*
X-8300Y740000D02*
G54D25*
D03*
X-8300Y720000D02*
G54D25*
D03*
X-8300Y695000D02*
G54D25*
D03*
X9250Y970293D02*
G54D10*
D03*
X9250Y849893D02*
G54D10*
D03*
X36350Y922500D02*
G54D26*
D03*
X36350Y897500D02*
G54D26*
D03*
X56350Y922500D02*
G54D26*
D03*
X56350Y897500D02*
G54D26*
D03*
X-11500Y290293D02*
G54D27*
D03*
X-11500Y169893D02*
G54D27*
D03*
X-16550Y242500D02*
G54D26*
D03*
X-16550Y217500D02*
G54D26*
D03*
X15550Y242500D02*
G54D26*
D03*
X15550Y217500D02*
G54D26*
D03*
X48300Y-47000D02*
G54D28*
D03*
X0Y-47000D02*
G54D28*
D03*
X48300Y0D02*
G54D28*
D03*
X0Y0D02*
G54D28*
D03*
X48300Y47000D02*
G54D28*
D03*
X0Y47000D02*
G54D28*
D03*
X-48300Y-47000D02*
G54D28*
D03*
X-48300Y0D02*
G54D28*
D03*
X-48300Y47000D02*
G54D28*
D03*
G54D12*
X-16550Y217500D02*
X-25400Y217500D01*
G36*
X-16550Y212500D02*
X-16550Y222500D01*
X-11550Y222500D01*
X-11550Y212500D01*
X-16550Y212500D01*
G37*
G36*
X-25400Y222500D02*
X-25400Y212500D01*
X-30400Y212500D01*
X-30400Y222500D01*
X-25400Y222500D01*
G37*
M02*
